<?xml version="1.0" encoding="UTF-8"?>
<!DOCTYPE svg PUBLIC "-//W3C//DTD SVG 1.1//EN" "http://www.w3.org/Graphics/SVG/1.1/DTD/svg11.dtd">
<!-- Creator: CorelDRAW -->
<svg xmlns="http://www.w3.org/2000/svg" xml:space="preserve" width="124.674mm" height="119.336mm" version="1.1" style="shape-rendering:geometricPrecision; text-rendering:geometricPrecision; image-rendering:optimizeQuality; fill-rule:evenodd; clip-rule:evenodd"
viewBox="0 0 5989.13 5732.72"
 xmlns:xlink="http://www.w3.org/1999/xlink"
 xmlns:xodm="http://www.corel.com/coreldraw/odm/2003">
 <defs>
  <style type="text/css">
   <![CDATA[
    .fil3 {fill:#010101}
    .fil5 {fill:#131213}
    .fil4 {fill:#43110A}
    .fil2 {fill:#9C1C0E}
    .fil1 {fill:#D2301A}
    .fil0 {fill:#ED3C1D}
   ]]>
  </style>
 </defs>
 <g id="Camada_x0020_1">
  <metadata id="CorelCorpID_0Corel-Layer"/>
  <path class="fil0" d="M3493.12 752.48l-249.7 -3.55 0.02 747.4 -242.66 4.03 -2.66 3489.14 238.5 0.12 9 -238.73 996.34 -11.61 -1.7 -247.65 -243.99 7.93 4.86 -228.85c-46.11,-0.1 -91.78,1.43 -137.15,1.65 -81.29,0.39 -81.23,16.97 -109.91,-31.94 -40.22,-182.09 -10.55,-885.37 -10.55,-1122.1 0,-369.75 -9.31,-751.63 0.85,-1119.85l252.55 -1.82 0.25 -241.78 243.23 -8.01 -0.07 250.17 -233.94 0.37c42.71,174.56 10.85,1012.17 11.36,1256.42l471.92 -5.61 2.28 -250.25 747.12 -2.55 1.45 -247.1 249.88 -3.63 1.06 -248.14 233.44 -1.36 3.63 -234.97c-40.78,-0.85 -78.67,0.38 -118.4,0.47 -86.13,0.19 -86.33,3.08 -122.66,-24.16l1.92 -487.82 -248.5 -3.23 -1.21 -494.88 -248.93 -2.7 -1.48 -249.35 -246.93 -0.68 -0.95 -249.39 -500.14 -2.94 1.37 -232.54 -499.87 -6.77 0.89 239.44 -250.53 6.84z"/>
  <path class="fil1" d="M1748.94 500.22l-492.37 -2.35 491.46 3.46 -2.67 247.78 -494.21 -2.24 -3.07 249.93 -248.41 2.22 -2.06 247.73 -248.38 5.33 -0.72 494.29 -249.96 1.33c0.76,120.07 19.68,398.06 -11.72,497.44l-236.63 0.69 -0.76 496.57 492.72 1.95 4.4 253.52 750.63 -3.85c-95.72,-36.76 -590.15,-13.79 -737.96,-9.66l-0.33 -240.93 238.01 -0.23 1.51 -745.73 248.3 -2 3.85 -246.9 253.05 6.48 -3.91 -257.2 240.86 1.43 2.98 251.31 16.13 0.99 -9.97 -504.95 494.5 2.06 5.44 -247.56 731.47 -4.79 3.67 503.64 15.99 0.39 1.65 -752.14 240.98 0.71c0.05,-72.12 -13.19,-190.09 16.13,-237.49 50.13,-25.75 162.05,-10.51 233.39,-14.2l-3.36 -247.98 -1240.24 -0.48 -2.42 0.38 -0.59 249.53 -497.38 1.53z"/>
  <path class="fil0" d="M1759.68 1751.58l237.44 -0.23 1.53 247.1 246.76 -0.31 0.69 2243.78 -246.44 -1.38 -0.99 241.85 5.89 259.71 237.95 0.78c8.46,292.3 -87.75,277.28 506.96,246.68l4.01 -3491.97 231.31 2.38 -3.67 -503.64 -731.47 4.79 -5.44 247.56 -494.5 -2.06 9.97 504.95z"/>
  <path class="fil1" d="M251.43 3493.04l247.08 -0.37 -1.02 271.5 -1.04 229.08 -0.49 3.17 253.07 -1.51 -2.23 491.23 258.51 3.37 -0.46 246.36 245.73 4.09 2.86 254.62 484.68 -4.82 2.65 246.7 506.57 2.34 10.31 251.66 967.61 0.9c28.04,-76.88 21.66,-168.94 15.9,-251.85 -77.42,1.02 -177.51,17.36 -244.99,-15.49l-0.73 -234.5 -245.98 0.03c-594.71,30.6 -498.5,45.62 -506.96,-246.68l-237.95 -0.78 -5.89 -259.71 -251.48 7.25 -0.32 248.4 -243.52 1.25c-8.77,-73.22 -23.05,-188.69 8.79,-243.09l-15.69 -251.59 -247.14 -3.43 -0.68 -245.14 -248.47 -2.45 6.09 -497.82 241.16 -11.05 8.45 -226.97 219.95 0.17c7.53,90 -19.77,183.15 30.93,241.22l-4.47 -251.59c87.28,-1.02 174.26,-1.36 261.56,-1.22 119.98,0.19 212.49,23.51 231.48,-26.23l-482.48 1.95c-0.86,-58.34 8.07,-182.52 -15.62,-228.02l-3.78 243.86 -743.3 -1.66 -3.55 -238.35 -498.15 0.25 3.01 494.93z"/>
  <path class="fil0" d="M3996.92 1996.65l-5 1249.16 498 1.23 -1.52 243.7 -495.68 9.18 -0.67 741.14 -237.99 -0.63c28.68,48.9 28.62,32.33 109.91,31.94 45.37,-0.22 91.04,-1.74 137.15,-1.65l-4.86 228.85 1.18 -258.91 241.71 -0.37 1.1 251.35 757.6 -8.92 241.53 8.63 2.49 -497.83 248.01 -3.43 0.2 -497.17 233.55 1.47 4.2 -750.02 -237.46 0.32 -5.19 249.45 -246.13 1.28 0.71 247.98 -750.11 4.81 -471.92 5.61c-0.51,-244.26 31.35,-1081.86 -11.36,-1256.42 -23.76,-69.26 -19.1,-165.95 -9.21,-242.53l-0.25 241.78z"/>
  <path class="fil0" d="M1497.2 2994.02c23.69,45.51 14.77,169.68 15.62,228.02l482.48 -1.95 3.35 -1221.64 -248.28 -4.07 -6.82 -243.79 -239.92 4.47 -253.05 -6.48 -3.85 246.9 -248.3 2 -1.51 745.73 -238.01 0.23 0.33 240.93c147.8,-4.13 642.24,-27.1 737.96,9.66z"/>
  <path class="fil2" d="M2749.47 4989.55l245.98 -0.03 0.73 234.5c67.47,32.85 167.57,16.52 244.99,15.49 5.76,82.91 12.15,174.97 -15.9,251.85l521.1 -0.38 9.97 -249.33c-34.69,34.78 -3.37,-21.67 -18.65,33.68l-0.98 206.82 -240.62 -4.09 -4.33 -237.81 -244.63 0.53c-3.37,-81.82 0.35,-201.43 -10.51,-251.15l-238.5 -0.12 2.66 -3489.14 -15.99 -0.39 -231.31 -2.38 -4.01 3491.97z"/>
  <path class="fil0" d="M1512.13 4496.2l235.05 -6.56 2.5 -247.24 249.97 -1.86 -2.33 -748.82 -490.59 7.41c-50.7,-58.07 -23.4,-151.22 -30.93,-241.22l-219.95 -0.17 -8.45 226.97 -241.16 11.05 -6.09 497.82 248.47 2.45 0.68 245.14 247.14 3.43 15.69 251.59z"/>
  <path class="fil2" d="M3754.07 4240.43l237.99 0.63 0.67 -741.14 495.68 -9.18 1.52 -243.7 -498 -1.23 5 -1249.16 -252.55 1.82c-10.16,368.22 -0.85,750.1 -0.85,1119.85 -0,236.73 -29.67,940.01 10.55,1122.1z"/>
  <path class="fil2" d="M1995.3 3220.09c-18.98,49.74 -111.5,26.42 -231.48,26.23 -87.3,-0.13 -174.28,0.21 -261.56,1.22l4.47 251.59 490.59 -7.41 2.33 748.82 246.44 1.38 -0.69 -2243.78 -246.76 0.31 -3.35 1221.64z"/>
  <path class="fil1" d="M3236.62 4989.62c10.86,49.73 7.14,169.34 10.51,251.15l244.63 -0.53 4.33 237.81 240.62 4.09 0.98 -206.82c15.29,-55.35 -16.04,1.09 18.65,-33.68l480.88 -4.18 -2.81 -237.26c32.72,-36.04 -62.43,-19.35 54.49,-34.18l434.5 -0.39 -0.37 -226.34 -481.08 -0.01 -996.34 11.61 -9 238.73z"/>
  <path class="fil3" d="M251.43 3493.04l-3.01 -494.93 1.03 -255.72 0.76 -496.57 236.63 -0.69c31.4,-99.39 12.49,-377.38 11.72,-497.44l-249.44 9.11 -0.27 487.72 -248.86 0.91 0.31 1245.12 251.13 2.5z"/>
  <polygon class="fil3" points="2249.33,248.77 3489.57,249.25 3746.41,249.76 3741.6,0.05 2247.84,0 "/>
  <polygon class="fil3" points="3746.38,5490.98 3225.28,5491.36 2257.67,5490.46 2258.72,5732.72 3744.51,5728.32 "/>
  <polygon class="fil3" points="5744.05,3493.69 5989.13,3490.45 5989.12,2245.01 5749.91,2245.25 "/>
  <polygon class="fil3" points="5239.39,4491.35 5489.17,4486.69 5489.57,3992.35 5738.83,3987.85 5744.05,3493.69 5723.65,3494.38 5490.1,3492.92 5489.9,3990.09 5241.89,3993.52 "/>
  <path class="fil2" d="M4241.96 4739.28l481.08 0.01 0.37 226.34 -434.5 0.39c-116.91,14.83 -21.76,-1.86 -54.49,34.18l504.61 -4.7 2.41 -6.51 4.17 -246.78 244.05 -5.51 4.14 -0.33 4.07 -253.65 -757.6 8.92 1.7 247.65z"/>
  <polygon class="fil2" points="4489.67,3248.21 5239.78,3243.4 5239.07,2995.41 4491.95,2997.96 "/>
  <polygon class="fil3" points="498.56,1747.68 748.53,1746.35 749.25,1252.07 997.63,1246.74 999.69,999.01 749.05,1002.87 749.13,1247 500.33,1250.75 "/>
  <polygon class="fil2" points="3000.78,1500.36 3243.44,1496.33 3243.41,748.93 3002.43,748.22 "/>
  <polygon class="fil2" points="1497.2,2994.02 746.57,2997.87 750.12,3236.22 1493.42,3237.87 "/>
  <path class="fil3" d="M1740.78 5236.46l-2.65 -246.7 -484.68 4.82c-21.45,-37.7 -6.82,54.8 -21.27,-61.42l-1.35 -170.21 -231.29 -9.27 9.75 236.58 239.21 0.24 0.43 237.15c80.13,26.57 394.19,17.14 491.84,8.8z"/>
  <path class="fil2" d="M3243.41 748.93l249.7 3.55 1.07 -250.23 248.58 3.96 499.87 6.77 0.12 -17.89 -499.37 -2.91 3.03 -242.43 -256.84 -0.51 3.36 247.98c-71.34,3.7 -183.26,-11.55 -233.39,14.2 -29.32,47.4 -16.08,165.38 -16.13,237.49z"/>
  <polygon class="fil2" points="248.42,2998.12 746.57,2997.87 742.17,2744.34 249.45,2742.39 "/>
  <polygon class="fil2" points="4990.75,1247.89 4491.35,1249.26 4489.91,1497.49 4990.74,1498.03 "/>
  <polygon class="fil2" points="997.63,1246.74 999.81,1495.41 1498.88,1497.94 1498.28,1250.06 "/>
  <polygon class="fil3" points="5489.38,1748.7 5489.8,1249.56 5239.68,1250.59 5240.88,1745.47 "/>
  <polygon class="fil3" points="5487.46,2236.52 5746.22,2235.93 5738.45,1748.99 5489.38,1748.7 "/>
  <polygon class="fil3" points="1748.94,500.22 2246.32,498.68 2246.91,249.15 1748.3,253.16 "/>
  <polygon class="fil3" points="4741.39,748.46 4735.19,500.68 4242.75,495.09 4242.63,512.98 4241.25,745.52 "/>
  <polygon class="fil3" points="746.8,4486.14 749.03,3994.91 495.96,3996.42 500.71,4488.88 "/>
  <polygon class="fil3" points="1251.17,746.87 1745.37,749.11 1748.04,501.33 1256.58,497.86 "/>
  <polygon class="fil3" points="3746.38,5490.98 4240.39,5489.41 4237.22,5237.46 3756.35,5241.65 "/>
  <polygon class="fil3" points="4237.22,5237.46 4739.62,5239.27 4739.02,4995.5 4234.41,5000.2 "/>
  <polygon class="fil3" points="4242.75,495.09 4240.4,251.74 3746.41,249.76 3743.38,492.18 "/>
  <polygon class="fil3" points="2235.16,5489.43 2241.29,5246.08 1741.01,5252.39 1754.43,5486.9 "/>
  <path class="fil3" d="M264.82 3990.06c17.39,-23.06 -11.91,-53.53 105.88,-42.23 -4.88,-83.03 15.59,-110.7 100.01,-102.06l26.8 -81.61 1.02 -271.5 -247.08 0.37c-2.95,128.92 -28.45,400.24 13.38,497.02z"/>
  <path class="fil2" d="M5490.39 2744.69l237.46 -0.32 -4.2 750.02 20.4 -0.69 5.86 -1248.44 -3.69 -9.32 -258.75 0.59c36.34,27.25 36.53,24.36 122.66,24.16 39.73,-0.09 77.62,-1.32 118.4,-0.47l-3.63 234.97 -233.44 1.36 -1.06 248.14z"/>
  <path class="fil4" d="M999.55 4753.69l231.29 9.27 1.35 170.21c14.45,116.22 -0.18,23.73 21.27,61.42l-2.86 -254.62 -245.73 -4.09 0.46 -246.36 -258.51 -3.37 6.06 253.61 246.69 13.94z"/>
  <polygon class="fil3" points="4990.75,1247.89 5239.68,1250.59 5238.21,999.94 4989.27,998.53 "/>
  <polygon class="fil3" points="999.69,999.01 1248.1,996.79 1251.17,746.87 1000.74,750.43 "/>
  <polygon class="fil2" points="3996.27,4499.57 4240.26,4491.64 4239.16,4240.29 3997.45,4240.65 "/>
  <polygon class="fil2" points="5239.07,2995.41 5485.21,2994.14 5490.39,2744.69 5240.52,2748.31 "/>
  <polygon class="fil3" points="4741.44,4988.99 4989.18,4990.63 4989.66,4736.7 4745.61,4742.21 "/>
  <polygon class="fil2" points="4240.4,1746.85 4489.87,1746.2 4491.39,1501.22 4241.33,1498.98 "/>
  <polygon class="fil2" points="1998.65,1998.45 1997.11,1751.35 1759.68,1751.58 1743.55,1750.59 1750.37,1994.38 "/>
  <path class="fil2" d="M1747.18 4489.64l-235.05 6.56c-31.84,54.4 -17.56,169.87 -8.79,243.09l243.52 -1.25 0.32 -248.4z"/>
  <polygon class="fil2" points="1747.18,4489.64 1998.67,4482.39 1999.66,4240.54 1749.69,4242.4 "/>
  <polygon class="fil3" points="4989.27,998.53 4984.61,748.93 4741.39,748.46 4742.34,997.86 "/>
  <polygon class="fil2" points="1503.62,1755.05 1743.55,1750.59 1740.57,1499.28 1499.71,1497.85 "/>
  <polygon class="fil1" points="3493.12,752.48 3743.65,745.65 3742.76,506.21 3494.18,502.25 "/>
  <polygon class="fil3" points="4993.8,4736.37 5240.25,4737.04 5239.39,4491.35 4997.86,4482.72 "/>
  <path class="fil2" d="M4006.39 1997.39l233.94 -0.37 0.07 -250.17 -243.23 8.01c-9.89,76.57 -14.55,173.27 9.21,242.53z"/>
  <polygon class="fil3" points="755.39,4730.88 985.85,4729.12 990.14,4501.88 758.7,4500.36 "/>
  <path class="fil5" d="M264.82 3990.06l231.64 3.19 1.04 -229.08 -26.8 81.61c-84.42,-8.64 -104.88,19.02 -100.01,102.06 -117.79,-11.31 -88.49,19.16 -105.88,42.23z"/>
 </g>
</svg>
